<svg width="619" height="153" viewBox="0 0 619 153" fill="none" xmlns="http://www.w3.org/2000/svg">
<g filter="url(#filter0_i_2_6)">
<path d="M143 46L34 139" stroke="#10B981" stroke-width="28" stroke-linecap="round"/>
</g>
<circle cx="34" cy="46" r="33.5" fill="#10B981" stroke="#10B981"/>
<path d="M190.034 148C187.546 148 186.9 146.421 188.096 143.263L223.841 49.4497C224.942 46.5308 226.521 45.0713 228.579 45.0713H238.627C240.685 45.0713 242.264 46.5308 243.365 49.4497L279.11 143.263C280.306 146.421 279.66 148 277.172 148H269.851C267.314 148 265.592 146.828 264.683 144.483L255.71 120.725H211.496L202.523 144.483C201.614 146.828 199.892 148 197.355 148H190.034ZM216.018 108.953H251.188L240.207 80.2422C239.202 77.5625 238.197 74.5957 237.192 71.3418C236.235 68.0879 235.086 63.4702 233.747 57.4888H233.459C232.12 63.4702 230.947 68.0879 229.942 71.3418C228.985 74.5957 228.004 77.5625 227 80.2422L216.018 108.953ZM294.04 148C291.886 148 290.81 146.923 290.81 144.77V75.8638C290.81 73.7104 291.886 72.6338 294.04 72.6338H300.069C302.222 72.6338 303.299 73.7104 303.299 75.8638V84.4771H303.586C305.883 80.1704 308.586 76.9165 311.697 74.7153C314.807 72.5142 318.683 71.4136 323.325 71.4136C326.387 71.4136 328.541 71.6768 329.785 72.2031C330.885 72.6338 331.292 73.3516 331.005 74.3564L329.354 80.2422C329.115 81.1035 328.493 81.4385 327.488 81.2471C325.813 80.9121 324.234 80.7446 322.75 80.7446C317.152 80.7446 312.534 83.2808 308.897 88.353C305.261 93.3774 303.442 100.244 303.442 108.953V144.77C303.442 146.923 302.366 148 300.212 148H294.04ZM345.863 148C343.709 148 342.633 146.923 342.633 144.77V45.2866C342.633 43.1333 343.709 42.0566 345.863 42.0566H352.036C354.189 42.0566 355.266 43.1333 355.266 45.2866V105.005C355.266 106.441 355.218 107.876 355.122 109.312H355.266L384.335 74.5C385.388 73.2559 386.656 72.6338 388.14 72.6338H394.671C398.308 72.6338 398.93 74.0454 396.538 76.8687L374 103.713L399.768 143.765C401.586 146.588 400.964 148 397.901 148H390.867C389.288 148 387.924 147.115 386.776 145.344L366.104 113.116L355.266 126.036V144.77C355.266 146.923 354.189 148 352.036 148H345.863ZM412.759 148C409.314 148 408.189 146.421 409.386 143.263L444.557 50.8853C446.04 47.0093 448.289 45.0713 451.304 45.0713H461.353C464.367 45.0713 466.616 47.0093 468.1 50.8853L503.271 143.263C504.467 146.421 503.342 148 499.897 148H488.484C485.326 148 483.125 146.349 481.881 143.047L474.56 123.739H438.097L430.775 143.047C429.531 146.349 427.33 148 424.172 148H412.759ZM444.772 105.938H467.884L459.056 83.1133C458.003 80.4336 457.357 78.4956 457.118 77.2993C456.926 76.0552 456.711 74.2368 456.472 71.8442H456.185C455.945 74.2368 455.706 76.0552 455.467 77.2993C455.275 78.4956 454.653 80.4336 453.601 83.1133L444.772 105.938ZM521.071 148C517.722 148 516.047 146.206 516.047 142.617V50.4546C516.047 46.8657 517.722 45.0713 521.071 45.0713H531.981C535.331 45.0713 537.006 46.8657 537.006 50.4546V142.617C537.006 146.206 535.331 148 531.981 148H521.071Z" fill="#00A56E"/>
<defs>
<filter id="filter0_i_2_6" x="19.9998" y="31.9998" width="137.001" height="125.001" filterUnits="userSpaceOnUse" color-interpolation-filters="sRGB">
<feFlood flood-opacity="0" result="BackgroundImageFix"/>
<feBlend mode="normal" in="SourceGraphic" in2="BackgroundImageFix" result="shape"/>
<feColorMatrix in="SourceAlpha" type="matrix" values="0 0 0 0 0 0 0 0 0 0 0 0 0 0 0 0 0 0 127 0" result="hardAlpha"/>
<feOffset dy="4"/>
<feGaussianBlur stdDeviation="2"/>
<feComposite in2="hardAlpha" operator="arithmetic" k2="-1" k3="1"/>
<feColorMatrix type="matrix" values="0 0 0 0 0 0 0 0 0 0 0 0 0 0 0 0 0 0 0.25 0"/>
<feBlend mode="normal" in2="shape" result="effect1_innerShadow_2_6"/>
</filter>
</defs>
</svg>
